<?xml version="1.0" standalone="no"?>
<!DOCTYPE svg PUBLIC "-//W3C//DTD SVG 20010904//EN"
 "http://www.w3.org/TR/2001/REC-SVG-20010904/DTD/svg10.dtd">
<svg version="1.0" xmlns="http://www.w3.org/2000/svg"
 width="16.000000pt" height="16.000000pt" viewBox="0 0 16.000000 16.000000"
 preserveAspectRatio="xMidYMid meet">
<metadata>
Created by potrace 1.11, written by Peter Selinger 2001-2013
</metadata>
<g transform="translate(0.000000,16.000000) scale(0.002015,-0.002015)"
fill="#000000" stroke="none">
<path d="M0 3975 c0 -1829 3 -2295 13 -2296 80 -5 4719 0 4725 5 4 4 7 145 7
312 l0 305 -115 -3 -115 -3 0 -192 0 -193 -55 0 c-400 -3 -4223 0 -4226 3 -4
3 -7 3937 -4 4110 0 16 107 17 2143 15 l2142 -3 1 -400 c1 -220 2 -404 3 -410
1 -10 220 -15 222 -5 1 3 2 240 3 528 l1 522 -2372 0 -2373 0 0 -2295z"/>
<path d="M3394 5004 c-84 -17 -157 -56 -216 -116 -96 -98 -116 -182 -113 -483
3 -281 20 -347 118 -445 161 -162 455 -164 611 -5 47 47 97 134 110 190 4 17
9 37 11 45 4 13 -12 15 -112 15 l-116 0 -17 -40 c-38 -86 -108 -127 -205 -118
-94 8 -142 53 -165 159 -11 46 -14 354 -4 424 7 54 45 123 82 147 64 42 161
42 223 0 27 -18 67 -76 81 -118 2 -6 41 -10 98 -10 154 -1 140 -6 126 49 -32
116 -113 224 -203 271 -83 42 -208 56 -309 35z"/>
<path d="M5510 5006 c-114 -24 -222 -100 -273 -195 -15 -28 -34 -83 -42 -122
-15 -84 -18 -422 -4 -513 26 -159 139 -282 299 -326 101 -28 256 -7 346 46 95
56 174 172 191 279 9 64 10 423 0 493 -33 236 -266 388 -517 338z m185 -214
c52 -26 83 -67 102 -137 4 -11 7 -108 9 -215 3 -269 -16 -334 -114 -381 -77
-38 -186 -13 -235 53 -31 42 -45 134 -46 308 -2 208 10 280 56 331 57 63 152
80 228 41z"/>
<path d="M797 5004 c-6 -6 374 -1148 384 -1154 5 -3 44 -6 86 -5 l78 0 32 95
c37 109 306 927 332 1011 l18 57 -117 1 -118 2 -13 -38 c-7 -21 -14 -42 -15
-48 -1 -5 -23 -77 -49 -158 -25 -81 -48 -155 -50 -165 -14 -58 -101 -332 -106
-332 -4 0 -9 10 -12 23 -3 12 -23 81 -45 152 -22 72 -66 213 -97 315 -31 102
-60 200 -66 218 l-11 32 -113 -1 c-62 0 -115 -3 -118 -5z"/>
<path d="M1990 4905 l0 -105 385 0 384 0 -1 105 -2 104 -383 0 -383 0 0 -104z"/>
<path d="M4102 4908 l3 -103 148 0 c140 0 147 -1 148 -20 0 -11 1 -227 2 -480
l2 -460 113 0 112 -1 0 26 c1 14 2 230 3 480 l2 455 135 1 c74 1 142 2 150 3
13 1 16 18 15 101 l0 100 -418 0 -418 0 3 -102z"/>
<path d="M6343 5002 l-32 -3 0 -580 0 -579 115 0 114 0 0 230 c0 177 3 230 13
231 62 4 160 0 167 -7 4 -5 56 -115 115 -244 59 -129 123 -269 142 -310 38
-83 52 -110 248 -493 l137 -268 1 -237 2 -237 113 -2 112 -2 0 238 0 238 34
64 c166 318 314 619 304 620 -7 0 -65 1 -128 2 l-115 1 -26 -50 c-14 -27 -32
-67 -41 -89 -13 -33 -58 -130 -133 -290 l-14 -30 -41 88 c-22 48 -69 149 -104
225 -35 75 -94 200 -131 277 -37 77 -86 181 -110 230 -24 50 -68 141 -99 204
l-56 115 31 13 c50 21 107 72 136 121 90 153 36 380 -111 466 -85 50 -142 59
-386 60 -124 0 -239 0 -257 -2z m487 -218 c75 -43 99 -127 61 -203 -34 -65
-77 -81 -228 -81 -110 0 -123 2 -124 18 -3 62 0 272 4 280 3 4 62 8 130 7 103
-1 130 -5 157 -21z"/>
<path d="M1990 4424 l0 -104 344 0 344 0 -1 105 0 106 -344 -2 -343 -1 0 -104z"/>
<path d="M2007 4052 c-15 -3 -17 -18 -17 -105 l0 -102 383 0 382 0 1 103 2
102 -27 1 c-95 3 -710 3 -724 1z"/>
<path d="M2161 3668 c-126 -22 -260 -126 -300 -234 -32 -84 -39 -158 -36 -389
2 -186 5 -217 25 -275 68 -203 284 -312 515 -260 134 30 245 132 288 265 31
96 37 89 -92 90 l-113 0 -24 -50 c-41 -85 -123 -124 -220 -104 -82 16 -131 73
-149 174 -9 53 -6 358 5 414 24 125 104 185 224 167 65 -10 107 -42 135 -103
22 -47 29 -53 55 -54 142 -3 196 -2 197 4 3 19 -15 85 -36 133 -44 100 -144
184 -255 214 -54 15 -160 19 -219 8z"/>
<path d="M1162 3643 c-5 -16 -40 -111 -77 -213 -37 -102 -84 -232 -105 -290
-21 -58 -81 -224 -134 -370 -53 -145 -96 -264 -96 -265 0 0 55 0 122 0 l121 0
35 103 34 102 205 -2 206 -3 29 -90 c16 -49 34 -94 39 -100 14 -14 229 -14
229 1 0 11 -42 129 -167 464 -36 96 -72 193 -79 215 -7 22 -49 137 -93 255
l-79 215 -90 3 -90 2 -10 -27z m178 -533 c34 -102 65 -190 67 -196 3 -7 -40
-11 -137 -11 -77 0 -140 3 -140 7 0 3 28 85 61 181 34 96 64 184 67 197 2 13
8 20 12 15 4 -4 35 -91 70 -193z"/>
<path d="M3101 3647 c-38 -99 -321 -885 -321 -889 0 -3 -8 -23 -17 -44 -9 -22
-18 -43 -19 -49 -1 -5 -14 -40 -28 -78 -14 -37 -26 -71 -26 -75 0 -8 226 -10
233 -2 3 3 19 49 37 103 l32 97 206 -2 205 -3 34 -100 33 -100 120 0 c66 -1
120 3 120 7 0 3 -63 179 -141 390 -78 211 -162 442 -189 513 -26 72 -58 158
-70 192 l-22 61 -90 0 c-82 0 -90 -1 -97 -21z m177 -543 l69 -200 -142 -1
-142 0 68 200 c38 110 69 202 69 205 0 18 16 -24 78 -204z"/>
<path d="M3809 3667 c-1 -1 -2 -262 -3 -579 -1 -506 1 -577 14 -581 8 -2 125
-3 260 -1 223 1 251 3 310 24 91 31 134 62 189 139 36 51 67 144 71 216 5 90
4 369 -2 430 -19 182 -129 303 -309 340 -48 10 -525 21 -530 12z m511 -228
c93 -52 110 -112 106 -379 -2 -164 -5 -190 -23 -232 -29 -63 -61 -94 -114
-108 -43 -12 -221 -16 -237 -6 -7 4 -10 749 -4 752 1 0 53 0 116 -1 99 -2 119
-5 156 -26z"/>
<path d="M4847 3662 c-2 -4 -3 -50 -3 -102 l1 -95 383 -3 382 -2 0 104 0 105
-380 -1 c-209 0 -381 -3 -383 -6z"/>
<path d="M5789 3632 c-1 -58 -1 -1053 0 -1092 l1 -35 110 0 c69 -1 110 3 111
10 1 5 3 150 4 320 1 171 3 315 4 320 1 6 45 -75 97 -180 131 -259 109 -234
200 -232 l76 2 109 214 109 214 0 -334 0 -334 115 0 115 0 0 582 0 582 -114 0
-114 0 -20 -47 c-11 -26 -66 -141 -122 -257 -56 -115 -114 -236 -129 -268
l-28 -57 -61 127 c-33 71 -101 212 -151 315 l-90 187 -111 0 -110 1 -1 -38z"/>
<path d="M4847 3182 c-2 -4 -3 -50 -3 -102 l1 -95 343 -1 342 -2 1 39 c0 22 1
57 1 79 0 22 -1 51 -1 64 l-1 25 -340 0 c-187 -1 -341 -4 -343 -7z"/>
<path d="M4848 2697 c-2 -7 -4 -52 -4 -102 l1 -90 384 0 384 0 -1 85 c0 47 -1
92 -1 102 -1 15 -35 16 -380 16 -285 1 -380 -2 -383 -11z"/>
</g>
</svg>
